<?xml version="1.0" encoding="UTF-8" standalone="no"?>
<!-- Generator: Adobe Illustrator 15.0.0, SVG Export Plug-In . SVG Version: 6.00 Build 0)  -->

<svg
   xmlns:osb="http://www.openswatchbook.org/uri/2009/osb"
   xmlns:dc="http://purl.org/dc/elements/1.1/"
   xmlns:cc="http://creativecommons.org/ns#"
   xmlns:rdf="http://www.w3.org/1999/02/22-rdf-syntax-ns#"
   xmlns:svg="http://www.w3.org/2000/svg"
   xmlns="http://www.w3.org/2000/svg"
   xmlns:sodipodi="http://sodipodi.sourceforge.net/DTD/sodipodi-0.dtd"
   xmlns:inkscape="http://www.inkscape.org/namespaces/inkscape"
   version="1.1"
   id="manoSeimas.lt"
   x="0px"
   y="0px"
   width="389.28601"
   height="61.427883"
   viewBox="0 0 389.28601 61.427883"
   enable-background="new 0 0 800 600"
   xml:space="preserve"
   inkscape:version="0.48.3.1 r9886"
   sodipodi:docname="logo.svg"><metadata
   id="metadata3007"><rdf:RDF><cc:Work
       rdf:about=""><dc:format>image/svg+xml</dc:format><dc:type
         rdf:resource="http://purl.org/dc/dcmitype/StillImage" /><dc:title></dc:title></cc:Work></rdf:RDF></metadata><defs
   id="defs3005"><linearGradient
     id="linearGradient3763"
     osb:paint="solid"><stop
       style="stop-color:#000000;stop-opacity:1;"
       offset="0"
       id="stop3765" /></linearGradient></defs><sodipodi:namedview
   pagecolor="#ffffff"
   bordercolor="#666666"
   borderopacity="1"
   objecttolerance="10"
   gridtolerance="10"
   guidetolerance="10"
   inkscape:pageopacity="0"
   inkscape:pageshadow="2"
   inkscape:window-width="1680"
   inkscape:window-height="1014"
   id="namedview3003"
   showgrid="false"
   fit-margin-top="4"
   fit-margin-left="4"
   fit-margin-bottom="4"
   fit-margin-right="4"
   inkscape:zoom="1.5733333"
   inkscape:cx="243.12208"
   inkscape:cy="16.361017"
   inkscape:window-x="0"
   inkscape:window-y="0"
   inkscape:window-maximized="1"
   inkscape:current-layer="Logo" />
<g
   id="Logo"
   transform="translate(-203.357,-265.327)">
	<linearGradient
   id="mano_1_"
   gradientUnits="userSpaceOnUse"
   x1="453.03519"
   y1="322.75101"
   x2="453.03519"
   y2="269.32761">
		<stop
   offset="0"
   style="stop-color:#24326A"
   id="stop2985" />
		<stop
   offset="1"
   style="stop-color:#556FB5"
   id="stop2987" />
	</linearGradient>
	<path
   id="mano"
   d="m 385.894,283.655 c 0,-1.343 -0.133,-2.58 -0.396,-3.708 -0.265,-1.127 -0.709,-2.088 -1.332,-2.88 -0.624,-0.792 -1.452,-1.416 -2.484,-1.872 -1.032,-0.456 -2.293,-0.684 -3.779,-0.684 -2.736,0 -4.837,0.708 -6.301,2.124 -1.465,1.417 -2.195,3.492 -2.195,6.228 0,2.4 0.603,4.248 1.81,5.544 1.207,1.296 2.716,2.329 4.527,3.096 1.81,0.769 3.766,1.453 5.867,2.052 2.1,0.601 4.055,1.404 5.866,2.412 1.811,1.008 3.319,2.4 4.526,4.176 1.207,1.777 1.811,4.224 1.811,7.344 0,2.977 -0.492,5.448 -1.476,7.416 -0.984,1.969 -2.244,3.528 -3.78,4.68 -1.536,1.152 -3.252,1.969 -5.147,2.448 -1.897,0.479 -3.757,0.72 -5.58,0.72 -3.024,0 -5.533,-0.385 -7.524,-1.151 -1.992,-0.768 -3.576,-1.873 -4.752,-3.313 -1.177,-1.439 -2.016,-3.228 -2.52,-5.363 -0.504,-2.135 -0.756,-4.572 -0.756,-7.309 h 6.479 c 0,1.439 0.072,2.869 0.216,4.283 0.145,1.417 0.528,2.701 1.152,3.853 0.623,1.152 1.584,2.077 2.88,2.772 1.296,0.696 3.096,1.044 5.4,1.044 1.247,0 2.423,-0.216 3.527,-0.648 1.104,-0.432 2.053,-1.044 2.845,-1.836 0.792,-0.792 1.415,-1.739 1.871,-2.844 0.456,-1.104 0.685,-2.352 0.685,-3.744 0,-1.823 -0.352,-3.312 -1.051,-4.464 -0.7,-1.152 -1.618,-2.124 -2.752,-2.916 -1.135,-0.792 -2.438,-1.44 -3.911,-1.944 -1.473,-0.504 -2.969,-1.02 -4.49,-1.548 -1.521,-0.527 -3.019,-1.116 -4.491,-1.764 -1.473,-0.648 -2.776,-1.487 -3.91,-2.52 -1.135,-1.032 -2.054,-2.34 -2.753,-3.924 -0.7,-1.584 -1.05,-3.551 -1.05,-5.904 0,-1.199 0.168,-2.604 0.504,-4.212 0.336,-1.608 1.044,-3.156 2.124,-4.644 1.08,-1.487 2.604,-2.748 4.572,-3.78 1.968,-1.031 4.583,-1.548 7.848,-1.548 4.943,0 8.556,1.188 10.836,3.564 2.279,2.376 3.468,5.965 3.564,10.764 h -6.48 z m 17.971,19.512 c 0,1.489 0.035,3.097 0.105,4.824 0.07,1.727 0.342,3.337 0.811,4.823 0.471,1.489 1.188,2.726 2.152,3.709 0.963,0.984 2.361,1.476 4.195,1.476 1.408,0 2.537,-0.323 3.383,-0.972 0.846,-0.649 1.494,-1.439 1.939,-2.376 0.447,-0.937 0.74,-1.919 0.883,-2.952 0.141,-1.031 0.211,-1.908 0.211,-2.628 h 6.191 c 0,1.008 -0.18,2.292 -0.539,3.853 -0.359,1.56 -1.02,3.072 -1.98,4.535 -0.961,1.465 -2.279,2.713 -3.959,3.744 -1.682,1.031 -3.842,1.548 -6.48,1.548 -4.752,0 -8.172,-1.631 -10.26,-4.896 -2.088,-3.264 -3.132,-8.232 -3.132,-14.904 0,-2.399 0.155,-4.835 0.468,-7.308 0.312,-2.472 0.96,-4.704 1.944,-6.696 0.983,-1.991 2.376,-3.624 4.175,-4.896 1.801,-1.271 4.188,-1.908 7.164,-1.908 2.928,0 5.256,0.576 6.984,1.728 1.728,1.152 3.023,2.628 3.889,4.428 0.863,1.8 1.414,3.805 1.656,6.012 0.238,2.208 0.359,4.345 0.359,6.408 v 2.448 h -20.159 z m 13.68,-4.752 v -2.088 c 0,-1.055 -0.094,-2.147 -0.281,-3.276 -0.189,-1.127 -0.529,-2.148 -1.021,-3.06 -0.494,-0.911 -1.164,-1.656 -2.01,-2.232 -0.846,-0.576 -1.928,-0.864 -3.242,-0.864 -1.553,0 -2.785,0.421 -3.701,1.26 -0.918,0.84 -1.611,1.813 -2.08,2.916 -0.471,1.104 -0.775,2.221 -0.916,3.348 -0.143,1.128 -0.211,1.98 -0.211,2.556 v 1.44 h 13.462 z m 11.139,-28.08 h 6.047 v 6.912 h -6.047 v -6.912 z m 0,12.816 h 6.047 v 38.592 h -6.047 v -38.592 z m 12.095,0 h 5.76 v 4.536 h 0.145 c 0.814,-1.775 2.111,-3.143 3.887,-4.104 1.775,-0.959 3.6,-1.44 5.473,-1.44 2.303,0 4.115,0.468 5.436,1.404 1.321,0.936 2.291,2.509 2.916,4.716 0.863,-1.68 2.1,-3.12 3.709,-4.32 1.607,-1.199 3.42,-1.8 5.436,-1.8 2.543,0 4.5,0.421 5.867,1.26 1.369,0.84 2.377,1.884 3.025,3.132 0.646,1.249 1.018,2.581 1.115,3.996 0.096,1.417 0.145,2.7 0.145,3.852 v 27.36 h -6.049 v -26.64 c 0,-0.72 -0.035,-1.536 -0.107,-2.448 -0.072,-0.911 -0.277,-1.764 -0.613,-2.556 -0.336,-0.792 -0.852,-1.451 -1.547,-1.98 -0.697,-0.528 -1.668,-0.792 -2.916,-0.792 -0.721,0 -1.502,0.121 -2.34,0.36 -0.842,0.241 -1.621,0.661 -2.34,1.26 -0.721,0.601 -1.322,1.404 -1.801,2.412 -0.48,1.008 -0.721,2.256 -0.721,3.744 v 26.64 h -6.047 v -26.64 c 0,-0.72 -0.037,-1.536 -0.107,-2.448 -0.072,-0.911 -0.277,-1.764 -0.613,-2.556 -0.336,-0.792 -0.852,-1.451 -1.547,-1.98 -0.697,-0.528 -1.67,-0.792 -2.916,-0.792 -0.721,0 -1.502,0.121 -2.34,0.36 -0.842,0.241 -1.621,0.661 -2.342,1.26 -0.719,0.601 -1.32,1.404 -1.799,2.412 -0.48,1.008 -0.721,2.256 -0.721,3.744 v 26.64 h -6.047 v -38.592 z m 48,11.664 c 0,-4.367 1.008,-7.571 3.023,-9.612 2.018,-2.04 5.328,-3.06 9.938,-3.06 2.926,0 5.184,0.385 6.768,1.152 1.584,0.769 2.746,1.728 3.492,2.88 0.742,1.152 1.176,2.365 1.295,3.636 0.119,1.272 0.18,2.412 0.18,3.42 v 21.529 c 0,0.816 0.072,1.536 0.217,2.159 0.145,0.624 0.695,0.937 1.656,0.937 0.383,0 0.684,-0.036 0.9,-0.108 0.215,-0.071 0.395,-0.155 0.539,-0.252 v 4.32 c -0.24,0.047 -0.695,0.119 -1.367,0.216 -0.674,0.096 -1.393,0.144 -2.16,0.144 -0.576,0 -1.164,-0.024 -1.764,-0.071 -0.602,-0.049 -1.178,-0.229 -1.729,-0.541 -0.553,-0.311 -1.008,-0.803 -1.369,-1.475 -0.359,-0.672 -0.564,-1.632 -0.611,-2.881 h -0.145 c -0.959,1.729 -2.291,3.085 -3.996,4.068 -1.703,0.983 -3.467,1.476 -5.291,1.476 -3.6,0 -6.252,-1.008 -7.957,-3.024 -1.703,-2.016 -2.555,-4.752 -2.555,-8.207 0,-2.736 0.586,-5.004 1.764,-6.805 1.176,-1.8 3.012,-3.084 5.508,-3.852 l 8.137,-2.448 c 1.104,-0.335 1.955,-0.684 2.555,-1.044 0.6,-0.36 1.033,-0.756 1.297,-1.188 0.264,-0.432 0.42,-0.936 0.469,-1.512 0.047,-0.576 0.07,-1.271 0.07,-2.088 0,-3.791 -2.064,-5.688 -6.191,-5.688 -1.68,0 -2.965,0.324 -3.852,0.972 -0.889,0.648 -1.537,1.404 -1.943,2.268 -0.41,0.864 -0.648,1.717 -0.721,2.556 -0.072,0.84 -0.107,1.429 -0.107,1.764 v 0.36 h -6.05 z m 18.649,5.904 c -0.57,0.576 -1.295,1.056 -2.172,1.44 -0.879,0.385 -1.805,0.732 -2.779,1.044 -0.973,0.313 -1.922,0.625 -2.848,0.936 -0.926,0.313 -1.721,0.685 -2.387,1.117 -0.949,0.623 -1.674,1.38 -2.172,2.268 -0.498,0.889 -0.746,2.172 -0.746,3.852 0,2.016 0.391,3.625 1.174,4.824 0.783,1.2 2.195,1.8 4.238,1.8 0.996,0 1.959,-0.19 2.885,-0.575 0.924,-0.385 1.742,-0.912 2.457,-1.584 0.711,-0.672 1.281,-1.452 1.707,-2.341 0.428,-0.888 0.643,-1.836 0.643,-2.844 v -9.937 z m 33.377,2.196 c -0.889,-0.792 -1.896,-1.415 -3.023,-1.872 -1.129,-0.456 -2.268,-0.875 -3.42,-1.26 -1.199,-0.384 -2.365,-0.744 -3.492,-1.08 -1.129,-0.335 -2.137,-0.756 -3.023,-1.26 -0.889,-0.504 -1.609,-1.116 -2.16,-1.836 -0.553,-0.72 -0.828,-1.656 -0.828,-2.808 0,-1.343 0.24,-2.412 0.721,-3.204 0.479,-0.792 1.043,-1.379 1.691,-1.764 0.648,-0.383 1.332,-0.636 2.053,-0.756 0.719,-0.119 1.318,-0.18 1.799,-0.18 2.207,0 3.709,0.648 4.5,1.944 0.793,1.296 1.188,3.168 1.188,5.616 h 0.061 l 5.41,-5.395 c -0.246,-0.849 -0.596,-1.67 -1.078,-2.454 -0.768,-1.248 -1.943,-2.304 -3.527,-3.168 -1.584,-0.864 -3.77,-1.296 -6.553,-1.296 -1.68,0 -3.264,0.216 -4.752,0.648 -1.488,0.432 -2.797,1.092 -3.924,1.98 -1.129,0.889 -2.016,2.005 -2.664,3.348 -0.648,1.344 -0.973,2.905 -0.973,4.68 0,1.969 0.277,3.576 0.828,4.824 0.553,1.249 1.271,2.257 2.16,3.024 0.889,0.769 1.908,1.38 3.061,1.836 1.153,0.456 2.305,0.876 3.457,1.26 1.15,0.385 2.291,0.769 3.42,1.151 1.127,0.385 2.135,0.854 3.023,1.404 0.887,0.553 1.607,1.249 2.16,2.088 0.551,0.841 0.828,1.908 0.828,3.205 0,1.393 -0.242,2.496 -0.721,3.312 -0.48,0.816 -1.068,1.464 -1.764,1.944 -0.697,0.48 -1.404,0.791 -2.125,0.936 -0.719,0.145 -1.32,0.216 -1.799,0.216 -1.488,0 -2.701,-0.239 -3.637,-0.72 -0.936,-0.479 -1.668,-1.14 -2.195,-1.98 -0.529,-0.839 -0.889,-1.8 -1.08,-2.88 -0.193,-1.079 -0.289,-2.196 -0.289,-3.348 h -6.047 c 0,1.008 0.072,2.28 0.215,3.815 0.145,1.537 0.637,3.037 1.477,4.5 0.84,1.465 2.16,2.725 3.961,3.78 1.799,1.056 4.33,1.584 7.596,1.584 1.775,0 3.432,-0.252 4.967,-0.756 1.537,-0.504 2.855,-1.26 3.961,-2.269 1.104,-1.008 1.967,-2.268 2.592,-3.779 0.623,-1.512 0.936,-3.275 0.936,-5.292 0,-1.919 -0.275,-3.492 -0.828,-4.716 -0.554,-1.222 -1.275,-2.23 -2.163,-3.022 z"
   inkscape:connector-curvature="0"
   style="fill:#353535;fill-opacity:1" />
	<linearGradient
   id="Seimas_1_"
   gradientUnits="userSpaceOnUse"
   x1="281.95209"
   y1="322.75491"
   x2="281.95209"
   y2="281.99561">
		<stop
   offset="0"
   style="stop-color:#21A049"
   id="stop2991" />
		<stop
   offset="1"
   style="stop-color:#89C540"
   id="stop2993" />
	</linearGradient>
	<path
   id="Seimas"
   d="m 207.357,283.007 h 9.505 v 3.96 h 0.144 c 1.248,-1.775 2.651,-3.048 4.212,-3.816 1.56,-0.768 3.42,-1.152 5.58,-1.152 2.304,0 4.235,0.529 5.796,1.584 1.56,1.057 2.604,2.592 3.132,4.608 h 0.145 c 0.767,-2.063 2.003,-3.611 3.708,-4.644 1.703,-1.032 3.731,-1.548 6.084,-1.548 3.312,0 5.747,0.997 7.308,2.988 1.56,1.992 2.34,4.86 2.34,8.604 v 28.152 h -9.936 v -27.072 c 0,-1.631 -0.301,-2.88 -0.9,-3.744 -0.601,-0.864 -1.596,-1.296 -2.987,-1.296 -1.584,0 -2.845,0.529 -3.78,1.584 -0.937,1.056 -1.404,2.736 -1.404,5.04 v 25.488 h -9.936 v -27.072 c 0,-1.631 -0.301,-2.88 -0.9,-3.744 -0.601,-0.864 -1.597,-1.296 -2.988,-1.296 -1.584,0 -2.844,0.529 -3.779,1.584 -0.937,1.056 -1.404,2.736 -1.404,5.04 v 25.488 h -9.937 v -38.736 z m 52.654,11.88 v -0.936 c 0,-2.207 0.359,-4.079 1.08,-5.616 0.72,-1.536 1.691,-2.772 2.916,-3.708 1.224,-0.936 2.664,-1.607 4.319,-2.016 1.656,-0.407 3.42,-0.612 5.292,-0.612 2.928,0 5.316,0.288 7.164,0.864 1.848,0.576 3.276,1.393 4.284,2.448 1.008,1.057 1.692,2.316 2.052,3.78 0.36,1.465 0.54,3.06 0.54,4.788 v 20.376 c 0,1.824 0.084,3.239 0.252,4.247 0.168,1.009 0.492,2.089 0.973,3.24 h -9.504 c -0.337,-0.623 -0.589,-1.284 -0.757,-1.979 -0.168,-0.695 -0.323,-1.38 -0.468,-2.053 h -0.144 c -1.152,2.016 -2.484,3.361 -3.996,4.032 -1.512,0.672 -3.469,1.008 -5.868,1.008 -1.728,0 -3.192,-0.336 -4.392,-1.008 -1.201,-0.671 -2.16,-1.536 -2.881,-2.592 -0.72,-1.056 -1.248,-2.243 -1.584,-3.563 -0.336,-1.32 -0.504,-2.629 -0.504,-3.925 0,-1.823 0.191,-3.396 0.576,-4.716 0.384,-1.32 0.973,-2.448 1.765,-3.385 0.792,-0.936 1.8,-1.715 3.023,-2.34 1.224,-0.623 2.7,-1.175 4.428,-1.655 l 5.616,-1.512 c 1.487,-0.384 2.521,-0.911 3.096,-1.584 0.576,-0.672 0.864,-1.656 0.864,-2.952 0,-1.487 -0.349,-2.651 -1.044,-3.492 -0.696,-0.839 -1.884,-1.26 -3.563,-1.26 -1.537,0 -2.689,0.457 -3.456,1.368 -0.769,0.912 -1.152,2.136 -1.152,3.672 v 1.08 h -8.927 z m 18.144,7.488 c -0.673,0.529 -1.393,0.949 -2.16,1.26 -0.768,0.313 -1.465,0.541 -2.088,0.685 -2.016,0.432 -3.456,1.151 -4.319,2.159 -0.864,1.009 -1.297,2.377 -1.297,4.104 0,1.489 0.288,2.761 0.864,3.815 0.576,1.057 1.536,1.585 2.88,1.585 0.672,0 1.368,-0.108 2.088,-0.324 0.721,-0.216 1.38,-0.563 1.98,-1.044 0.6,-0.479 1.091,-1.092 1.476,-1.836 0.384,-0.744 0.576,-1.668 0.576,-2.771 v -7.633 z m 14.65,-19.368 h 9.505 v 4.536 h 0.144 c 1.056,-1.919 2.423,-3.323 4.104,-4.212 1.679,-0.888 3.6,-1.332 5.76,-1.332 3.168,0 5.604,0.864 7.308,2.592 1.703,1.728 2.557,4.536 2.557,8.424 v 28.728 h -9.937 v -26.712 c 0,-2.016 -0.336,-3.42 -1.008,-4.212 -0.673,-0.792 -1.753,-1.188 -3.24,-1.188 -3.504,0 -5.256,2.136 -5.256,6.408 v 25.704 h -9.937 v -38.736 z m 33.214,19.368 c 0,-3.312 0.264,-6.239 0.792,-8.784 0.528,-2.544 1.392,-4.668 2.593,-6.372 1.199,-1.703 2.771,-3 4.716,-3.888 1.943,-0.888 4.331,-1.332 7.164,-1.332 2.976,-0.047 5.447,0.349 7.416,1.188 1.968,0.84 3.527,2.124 4.68,3.852 1.153,1.728 1.968,3.877 2.448,6.444 0.479,2.568 0.72,5.533 0.72,8.892 0,3.313 -0.265,6.24 -0.792,8.784 -0.528,2.545 -1.393,4.669 -2.592,6.372 -1.2,1.704 -2.772,3 -4.716,3.888 -1.944,0.888 -4.333,1.332 -7.164,1.332 -2.977,0.048 -5.448,-0.349 -7.416,-1.188 -1.969,-0.838 -3.528,-2.123 -4.681,-3.852 -1.151,-1.728 -1.969,-3.863 -2.447,-6.408 -0.481,-2.543 -0.721,-5.52 -0.721,-8.928 z m 9.937,0 c 0,1.969 0.047,3.793 0.144,5.473 0.096,1.68 0.324,3.12 0.685,4.319 0.359,1.2 0.888,2.137 1.584,2.808 0.695,0.674 1.667,1.009 2.916,1.009 2.016,0 3.407,-1.056 4.176,-3.169 0.768,-2.111 1.152,-5.59 1.152,-10.439 0,-4.848 -0.385,-8.327 -1.152,-10.44 -0.769,-2.111 -2.16,-3.168 -4.176,-3.168 -1.249,0 -2.221,0.336 -2.916,1.008 -0.696,0.672 -1.225,1.608 -1.584,2.808 -0.36,1.201 -0.589,2.641 -0.685,4.32 -0.098,1.68 -0.144,3.504 -0.144,5.471 z"
   inkscape:connector-curvature="0"
   style="fill-opacity:1;fill:#7d7d7d" />
	<linearGradient
   id="Buble_1_"
   gradientUnits="userSpaceOnUse"
   x1="564.56543"
   y1="297.3291"
   x2="564.56543"
   y2="272.74319">
		<stop
   offset="0"
   style="stop-color:#21A049"
   id="stop2997" />
		<stop
   offset="1"
   style="stop-color:#89C540"
   id="stop2999" />
	</linearGradient>
	<path
   id="Buble"
   clip-rule="evenodd"
   d="m 551.475,272.743 h 32.455 c 2.602,0 4.713,2.111 4.713,4.716 v 15.153 c 0,2.604 -2.111,4.716 -4.713,4.716 h -43.441 l 6.273,-6.254 v -13.616 c 0,-2.604 2.109,-4.715 4.713,-4.715 z"
   inkscape:connector-curvature="0"
   style="fill:#676767;fill-rule:evenodd;fill-opacity:1" />
	<path
   id="_x2E_lt"
   d="m 555.459,288.193 h 2.441 v 2.394 h -2.441 v -2.394 z m 5.354,-8.708 h 2.441 v 9.049 h 5.41 v 2.052 h -7.852 v -11.101 z m 11.089,2.053 h -3.326 v -2.052 h 9.096 v 2.052 h -3.328 v 9.049 h -2.441 v -9.049 z"
   inkscape:connector-curvature="0"
   style="fill:#ffffff" />
</g>
</svg>